<svg id="Capa_1" enable-background="new 0 0 510.021 510.021" height="512" viewBox="0 0 510.021 510.021" width="512" xmlns="http://www.w3.org/2000/svg"><path d="m490.591 3.859h-471.161c-10.71 0-19.43 8.72-19.43 19.44v404.51c0 10.731 8.699 19.43 19.43 19.43h182.908c5.016 0 9.7 2.507 12.482 6.68l31.859 47.789c3.958 5.937 12.683 5.937 16.641 0l31.859-47.789c2.782-4.173 7.466-6.68 12.482-6.68h182.929c10.731 0 19.43-8.699 19.43-19.43v-404.51c.001-10.72-8.719-19.44-19.429-19.44zm-422.081 69.87h214.5c8.28 0 15 6.71 15 15 0 8.28-6.72 15-15 15h-214.5c-8.28 0-15-6.72-15-15 0-8.29 6.72-15 15-15zm145.79 281.08h-145.79c-8.28 0-15-6.71-15-15 0-8.28 6.72-15 15-15h145.79c8.28 0 15 6.72 15 15 0 8.29-6.72 15-15 15zm-160.79-100.44c0-8.28 6.72-15 15-15h135.98c8.29 0 15 6.72 15 15s-6.71 15-15 15h-135.98c-8.28 0-15-6.72-15-15zm187.72-70.44h-172.72c-8.28 0-15-6.72-15-15 0-8.29 6.72-15 15-15h172.72c8.28 0 15 6.71 15 15 0 8.28-6.72 15-15 15zm210.88-70.56c-19.072 46.066-72.818 175.803-90.57 218.66-.93 2.26-2.4 4.25-4.28 5.81l-69.87 57.96c-9.254 7.667-23.403 1.866-24.51-10.16l-8.43-90.38c-.22-2.43.15-4.88 1.08-7.14l90.57-218.66c12.166-29.347 45.713-43.162 74.96-31.05 29.271 12.114 43.197 45.66 31.05 74.96z"/><path d="m284.67 296.169 5.44 58.39 45.13-37.44 66.87-161.43-50.57-20.95z"/><path d="m409.58 66.129c-13.946-5.786-29.954.813-35.76 14.81l-10.81 26.09 50.58 20.95 10.81-26.09c5.827-14.126-1-30.047-14.82-35.76z"/></svg>